<?xml version="1.0" encoding="UTF-8" standalone="no"?>
<svg
   version="1.0"
   width="200.000000pt"
   height="200.000000pt"
   viewBox="0 0 200.000000 200.000000"
   preserveAspectRatio="xMidYMid meet"
   id="wcm"
   xmlns="http://www.w3.org/2000/svg"
   xmlns:svg="http://www.w3.org/2000/svg">
  <g
     transform="translate(0.000000,200.000000) scale(0.100000,-0.100000)"
     fill="none"
     id="wcm">
    <path
       d="m 562,1748 c -144,-83.6667 -288,-167.3333 -432,-251 0,-331.3333 0,-662.66667 0,-994 290,-167.33333 580,-334.66667 870,-502 290,167.33333 580,334.66667 870,502 0,331.33333 0,662.6667 0,994 -289.5227,166.9141 -578.2891,335.1732 -869,500 -147.63565,-80.6337 -292.94746,-165.5299 -439,-249 z"
       id="hexagon" fill="#353535" />
    <path
       d="M 750,1573 C 639,1448 590,1288 623,1154 c 21,-83 50,-129 99,-155 41,-21 98,-25 129,-9 24,13 24,9 -1,-41 -31,-60 -72,-81 -145,-76 -77,5 -137,36 -175,88 -16,22 -49,102 -75,177 -25,75 -55,155 -68,177 -20,35 -65,75 -100,88 -15,6 12,29 65,57 44,24 98,26 138,5 19,-10 30,-11 30,-5 0,6 21,34 47,61 63,67 137,105 211,108 21,1 18,-5 -28,-56 z"
       id="yellow-left" fill="#ffec00"/>
    <path
       id="red-top"
       d="M 750,1573 C 639,1448 590,1288 623,1154 c 21,-83 50,-129 99,-155 41,-21 98,-25 129,-9 24,13 24,9 -1,-41 -31,-60 -72,-81 -145,-76 -77,5 -137,36 -175,88 -16,22 -49,102 -75,177 -25,75 -55,155 -68,177 -20,35 -65,75 -100,88 -15,6 12,29 65,57 44,24 98,26 138,5 19,-10 30,-11 30,-5 0,6 21,34 47,61 63,67 137,105 211,108 21,1 18,-5 -28,-56 z"
       transform="rotate(-60,1000,1000)" fill="#ff3500" />
    <path
       id="orange-right"
       d="M 750,1573 C 639,1448 590,1288 623,1154 c 21,-83 50,-129 99,-155 41,-21 98,-25 129,-9 24,13 24,9 -1,-41 -31,-60 -72,-81 -145,-76 -77,5 -137,36 -175,88 -16,22 -49,102 -75,177 -25,75 -55,155 -68,177 -20,35 -65,75 -100,88 -15,6 12,29 65,57 44,24 98,26 138,5 19,-10 30,-11 30,-5 0,6 21,34 47,61 63,67 137,105 211,108 21,1 18,-5 -28,-56 z"
       transform="rotate(-120,1000,1000)" fill="#ff9100" />
    <path
       id="yellow-right"
       d="M 750,1573 C 639,1448 590,1288 623,1154 c 21,-83 50,-129 99,-155 41,-21 98,-25 129,-9 24,13 24,9 -1,-41 -31,-60 -72,-81 -145,-76 -77,5 -137,36 -175,88 -16,22 -49,102 -75,177 -25,75 -55,155 -68,177 -20,35 -65,75 -100,88 -15,6 12,29 65,57 44,24 98,26 138,5 19,-10 30,-11 30,-5 0,6 21,34 47,61 63,67 137,105 211,108 21,1 18,-5 -28,-56 z"
       transform="rotate(180,1000,1000)" fill="#ffec00"/>
    <path
       id="red-bottom"
       d="M 750,1573 C 639,1448 590,1288 623,1154 c 21,-83 50,-129 99,-155 41,-21 98,-25 129,-9 24,13 24,9 -1,-41 -31,-60 -72,-81 -145,-76 -77,5 -137,36 -175,88 -16,22 -49,102 -75,177 -25,75 -55,155 -68,177 -20,35 -65,75 -100,88 -15,6 12,29 65,57 44,24 98,26 138,5 19,-10 30,-11 30,-5 0,6 21,34 47,61 63,67 137,105 211,108 21,1 18,-5 -28,-56 z"
       transform="rotate(120,1000,1000)" fill="#ff3500"/>
    <path
       id="orange-left"
       d="M 750,1573 C 639,1448 590,1288 623,1154 c 21,-83 50,-129 99,-155 41,-21 98,-25 129,-9 24,13 24,9 -1,-41 -31,-60 -72,-81 -145,-76 -77,5 -137,36 -175,88 -16,22 -49,102 -75,177 -25,75 -55,155 -68,177 -20,35 -65,75 -100,88 -15,6 12,29 65,57 44,24 98,26 138,5 19,-10 30,-11 30,-5 0,6 21,34 47,61 63,67 137,105 211,108 21,1 18,-5 -28,-56 z"
       transform="rotate(60,1000,1000)" fill="#ff9100"/>
  </g>
</svg>
